<?xml version="1.0" standalone="no"?>
<svg
  width="600"
  height="600"
  viewBox="0 0 600 600"
  xmlns="http://www.w3.org/2000/svg"
>
  <g transform="translate(300,300)">
    <path d="M145.7,-222.3C183.6,-202.3,205.5,-153.1,225.7,-104.4C246,-55.7,264.5,-7.5,254.6,34.1C244.7,75.6,206.2,110.5,171.2,145.1C136.2,179.8,104.6,214.1,64.4,231.5C24.2,248.8,-24.5,249.1,-70.4,237C-116.3,224.8,-159.4,200.2,-184.2,163.9C-208.9,127.6,-215.3,79.8,-223.3,31.5C-231.2,-16.8,-240.7,-65.5,-225.6,-104.9C-210.6,-144.3,-171,-174.4,-129.3,-192.7C-87.6,-210.9,-43.8,-217.5,5,-225.3C53.9,-233.2,107.8,-242.4,145.7,-222.3Z" fill="#dde7d1" />
  </g>
</svg>
  